%TF.GenerationSoftware,KiCad,Pcbnew,9.0.6*%
%TF.CreationDate,2026-07-29T18:35:32-07:00*%
%TF.ProjectId,IR Ribbon,49522052-6962-4626-9f6e-2e6b69636164,rev?*%
%TF.SameCoordinates,Original*%
%TF.FileFunction,Copper,L1,Top*%
%TF.FilePolarity,Positive*%
%FSLAX46Y46*%
G04 Gerber Fmt 4.6, Leading zero omitted, Abs format (unit mm)*
G04 Created by KiCad (PCBNEW 9.0.6) date 2026-07-29 18:35:32*
%MOMM*%
%LPD*%
G01*
G04 APERTURE LIST*
%TA.AperFunction,Conductor*%
%ADD10C,0.200000*%
%TD*%
%TA.AperFunction,ViaPad*%
%ADD11C,0.850000*%
%TD*%
%TA.AperFunction,ViaPad*%
%ADD12C,0.400000*%
%TD*%
%TA.AperFunction,ViaPad*%
%ADD13C,0.750000*%
%TD*%
%TA.AperFunction,Conductor*%
%ADD14C,0.250000*%
%TD*%
%TA.AperFunction,Conductor*%
%ADD15C,0.300000*%
%TD*%
G04 APERTURE END LIST*
%TO.N,GND*%
D10*
X152230000Y-100690000D02*
X152560000Y-100690000D01*
X152560000Y-101280000D01*
X152230000Y-101280000D01*
X152230000Y-100690000D01*
%TA.AperFunction,Conductor*%
G36*
X152230000Y-100690000D02*
G01*
X152560000Y-100690000D01*
X152560000Y-101280000D01*
X152230000Y-101280000D01*
X152230000Y-100690000D01*
G37*
%TD.AperFunction*%
X147830000Y-100692500D02*
X148190000Y-100692500D01*
X148190000Y-101287500D01*
X147830000Y-101287500D01*
X147830000Y-100692500D01*
%TA.AperFunction,Conductor*%
G36*
X147830000Y-100692500D02*
G01*
X148190000Y-100692500D01*
X148190000Y-101287500D01*
X147830000Y-101287500D01*
X147830000Y-100692500D01*
G37*
%TD.AperFunction*%
X170950000Y-90180000D02*
X170810000Y-90180000D01*
X171220000Y-86540000D02*
X171690000Y-86540000D01*
X171690000Y-87630000D01*
X171220000Y-87630000D01*
X171220000Y-86540000D01*
%TA.AperFunction,Conductor*%
G36*
X171220000Y-86540000D02*
G01*
X171690000Y-86540000D01*
X171690000Y-87630000D01*
X171220000Y-87630000D01*
X171220000Y-86540000D01*
G37*
%TD.AperFunction*%
X148260000Y-101860000D02*
X148820000Y-101860000D01*
X148820000Y-102100000D01*
X148260000Y-102100000D01*
X148260000Y-101860000D01*
%TA.AperFunction,Conductor*%
G36*
X148260000Y-101860000D02*
G01*
X148820000Y-101860000D01*
X148820000Y-102100000D01*
X148260000Y-102100000D01*
X148260000Y-101860000D01*
G37*
%TD.AperFunction*%
X149420000Y-101860000D02*
X149980000Y-101860000D01*
X149980000Y-102100000D01*
X149420000Y-102100000D01*
X149420000Y-101860000D01*
%TA.AperFunction,Conductor*%
G36*
X149420000Y-101860000D02*
G01*
X149980000Y-101860000D01*
X149980000Y-102100000D01*
X149420000Y-102100000D01*
X149420000Y-101860000D01*
G37*
%TD.AperFunction*%
X151700000Y-101860000D02*
X152260000Y-101860000D01*
X152260000Y-102100000D01*
X151700000Y-102100000D01*
X151700000Y-101860000D01*
%TA.AperFunction,Conductor*%
G36*
X151700000Y-101860000D02*
G01*
X152260000Y-101860000D01*
X152260000Y-102100000D01*
X151700000Y-102100000D01*
X151700000Y-101860000D01*
G37*
%TD.AperFunction*%
X170924600Y-89990000D02*
X170950000Y-89990000D01*
X170950000Y-90180000D01*
X170924600Y-90180000D01*
X170924600Y-89990000D01*
X150530000Y-101860000D02*
X151090000Y-101860000D01*
X151090000Y-102100000D01*
X150530000Y-102100000D01*
X150530000Y-101860000D01*
%TA.AperFunction,Conductor*%
G36*
X150530000Y-101860000D02*
G01*
X151090000Y-101860000D01*
X151090000Y-102100000D01*
X150530000Y-102100000D01*
X150530000Y-101860000D01*
G37*
%TD.AperFunction*%
X170947300Y-89990000D02*
X170810000Y-89990000D01*
%TD*%
D11*
%TO.N,GND*%
X147810000Y-101100000D03*
D12*
X170780000Y-86590000D03*
D13*
X151990000Y-102160000D03*
D12*
X170780000Y-87580000D03*
X170770000Y-89080000D03*
X170770000Y-88580000D03*
D13*
X148540000Y-102160000D03*
X150820000Y-102160000D03*
D12*
X170770000Y-90080000D03*
X170770000Y-89580000D03*
X170780000Y-87080000D03*
D11*
X152560000Y-101100000D03*
D13*
X149690000Y-102160000D03*
D12*
X170780000Y-88080000D03*
%TD*%
D14*
%TO.N,GND*%
X171780000Y-88080000D02*
X172770000Y-89070000D01*
X171430000Y-97110000D02*
X149970000Y-97110000D01*
X171360000Y-89740000D02*
X171360000Y-96470000D01*
X148790000Y-101870000D02*
X148540000Y-102120000D01*
X150810000Y-102120000D02*
X150820000Y-102130000D01*
X171360000Y-96470000D02*
X171250000Y-96580000D01*
X172300000Y-89340000D02*
X172300000Y-96940000D01*
X149690000Y-97390000D02*
X149690000Y-102140000D01*
X171740000Y-98180000D02*
X151830000Y-98180000D01*
X171540000Y-88580000D02*
X172300000Y-89340000D01*
X151620000Y-101760000D02*
X151990000Y-102130000D01*
X172770000Y-89070000D02*
X172770000Y-97150000D01*
X171200000Y-89580000D02*
X171360000Y-89740000D01*
X171590000Y-97650000D02*
X150810000Y-97650000D01*
X172300000Y-96940000D02*
X171590000Y-97650000D01*
X149970000Y-97110000D02*
X149690000Y-97390000D01*
X170770000Y-89080000D02*
X171360000Y-89080000D01*
D15*
X170870000Y-86590000D02*
X171510000Y-86590000D01*
D14*
X172770000Y-97150000D02*
X171740000Y-98180000D01*
X171820000Y-96720000D02*
X171430000Y-97110000D01*
X151620000Y-98390000D02*
X151620000Y-101760000D01*
X148790000Y-97020000D02*
X148790000Y-101870000D01*
X170780000Y-88080000D02*
X171780000Y-88080000D01*
X149230000Y-96580000D02*
X148790000Y-97020000D01*
D15*
X170790000Y-87080000D02*
X171430000Y-87080000D01*
D14*
X170770000Y-88580000D02*
X171540000Y-88580000D01*
X171820000Y-89540000D02*
X171820000Y-96720000D01*
X150810000Y-97650000D02*
X150810000Y-102120000D01*
D15*
X170820000Y-87580000D02*
X171460000Y-87580000D01*
D14*
X170770000Y-89580000D02*
X171200000Y-89580000D01*
X151830000Y-98180000D02*
X151620000Y-98390000D01*
X171250000Y-96580000D02*
X149230000Y-96580000D01*
X171360000Y-89080000D02*
X171820000Y-89540000D01*
%TD*%
M02*
