%TF.GenerationSoftware,KiCad,Pcbnew,9.0.6*%
%TF.CreationDate,2026-07-29T19:22:19-07:00*%
%TF.ProjectId,ir project,69722070-726f-46a6-9563-742e6b696361,rev?*%
%TF.SameCoordinates,Original*%
%TF.FileFunction,Soldermask,Top*%
%TF.FilePolarity,Negative*%
%FSLAX46Y46*%
G04 Gerber Fmt 4.6, Leading zero omitted, Abs format (unit mm)*
G04 Created by KiCad (PCBNEW 9.0.6) date 2026-07-29 19:22:19*
%MOMM*%
%LPD*%
G01*
G04 APERTURE LIST*
G04 Aperture macros list*
%AMRoundRect*
0 Rectangle with rounded corners*
0 $1 Rounding radius*
0 $2 $3 $4 $5 $6 $7 $8 $9 X,Y pos of 4 corners*
0 Add a 4 corners polygon primitive as box body*
4,1,4,$2,$3,$4,$5,$6,$7,$8,$9,$2,$3,0*
0 Add four circle primitives for the rounded corners*
1,1,$1+$1,$2,$3*
1,1,$1+$1,$4,$5*
1,1,$1+$1,$6,$7*
1,1,$1+$1,$8,$9*
0 Add four rect primitives between the rounded corners*
20,1,$1+$1,$2,$3,$4,$5,0*
20,1,$1+$1,$4,$5,$6,$7,0*
20,1,$1+$1,$6,$7,$8,$9,0*
20,1,$1+$1,$8,$9,$2,$3,0*%
G04 Aperture macros list end*
%ADD10C,0.453113*%
%ADD11C,0.322947*%
%ADD12C,0.100000*%
%ADD13RoundRect,0.225000X-0.250000X0.225000X-0.250000X-0.225000X0.250000X-0.225000X0.250000X0.225000X0*%
%ADD14RoundRect,0.200000X0.275000X-0.200000X0.275000X0.200000X-0.275000X0.200000X-0.275000X-0.200000X0*%
%ADD15RoundRect,0.200000X-0.200000X-0.275000X0.200000X-0.275000X0.200000X0.275000X-0.200000X0.275000X0*%
%ADD16RoundRect,0.112500X-0.112500X-0.237500X0.112500X-0.237500X0.112500X0.237500X-0.112500X0.237500X0*%
%ADD17RoundRect,0.200000X0.200000X0.275000X-0.200000X0.275000X-0.200000X-0.275000X0.200000X-0.275000X0*%
%ADD18RoundRect,0.225000X-0.225000X-0.250000X0.225000X-0.250000X0.225000X0.250000X-0.225000X0.250000X0*%
%ADD19RoundRect,0.112500X0.112500X0.237500X-0.112500X0.237500X-0.112500X-0.237500X0.112500X-0.237500X0*%
G04 APERTURE END LIST*
D10*
X141883443Y-74665000D02*
G75*
G02*
X141430331Y-74665000I-226556J0D01*
G01*
X141430331Y-74665000D02*
G75*
G02*
X141883443Y-74665000I226556J0D01*
G01*
D11*
X146121473Y-75888414D02*
G75*
G02*
X145798527Y-75888414I-161473J0D01*
G01*
X145798527Y-75888414D02*
G75*
G02*
X146121473Y-75888414I161473J0D01*
G01*
X144951473Y-75888414D02*
G75*
G02*
X144628527Y-75888414I-161473J0D01*
G01*
X144628527Y-75888414D02*
G75*
G02*
X144951473Y-75888414I161473J0D01*
G01*
D12*
X122495000Y-68805000D02*
X124375000Y-68805000D01*
X124375000Y-69795000D01*
X122495000Y-69795000D01*
X122495000Y-68805000D01*
G36*
X122495000Y-68805000D02*
G01*
X124375000Y-68805000D01*
X124375000Y-69795000D01*
X122495000Y-69795000D01*
X122495000Y-68805000D01*
G37*
D11*
X142631473Y-75888414D02*
G75*
G02*
X142308527Y-75888414I-161473J0D01*
G01*
X142308527Y-75888414D02*
G75*
G02*
X142631473Y-75888414I161473J0D01*
G01*
X143811473Y-75888414D02*
G75*
G02*
X143488527Y-75888414I-161473J0D01*
G01*
X143488527Y-75888414D02*
G75*
G02*
X143811473Y-75888414I161473J0D01*
G01*
D12*
X122485000Y-73805000D02*
X124365000Y-73805000D01*
X124365000Y-74795000D01*
X122485000Y-74795000D01*
X122485000Y-73805000D01*
G36*
X122485000Y-73805000D02*
G01*
X124365000Y-73805000D01*
X124365000Y-74795000D01*
X122485000Y-74795000D01*
X122485000Y-73805000D01*
G37*
X122475000Y-71305000D02*
X123735000Y-71305000D01*
X123735000Y-72285000D01*
X122475000Y-72285000D01*
X122475000Y-71305000D01*
G36*
X122475000Y-71305000D02*
G01*
X123735000Y-71305000D01*
X123735000Y-72285000D01*
X122475000Y-72285000D01*
X122475000Y-71305000D01*
G37*
D10*
X146766556Y-74651887D02*
G75*
G02*
X146313444Y-74651887I-226556J0D01*
G01*
X146313444Y-74651887D02*
G75*
G02*
X146766556Y-74651887I226556J0D01*
G01*
D12*
X122495000Y-76305000D02*
X123755000Y-76305000D01*
X123755000Y-77285000D01*
X122495000Y-77285000D01*
X122495000Y-76305000D01*
G36*
X122495000Y-76305000D02*
G01*
X123755000Y-76305000D01*
X123755000Y-77285000D01*
X122495000Y-77285000D01*
X122495000Y-76305000D01*
G37*
D13*
%TO.C,C3*%
X130855000Y-76465000D03*
X130855000Y-78015000D03*
%TD*%
D14*
%TO.C,R12*%
X132950000Y-74535000D03*
X132950000Y-72885000D03*
%TD*%
%TO.C,R24*%
X126440000Y-78285000D03*
X126440000Y-76635000D03*
%TD*%
D15*
%TO.C,R13*%
X145202500Y-80015000D03*
X146852500Y-80015000D03*
%TD*%
%TO.C,R15*%
X133285000Y-79945000D03*
X134935000Y-79945000D03*
%TD*%
D13*
%TO.C,C42*%
X125520000Y-68822500D03*
X125520000Y-70372500D03*
%TD*%
D14*
%TO.C,R23*%
X143130000Y-79305000D03*
X143130000Y-77655000D03*
%TD*%
D15*
%TO.C,R14*%
X128920000Y-80070000D03*
X130570000Y-80070000D03*
%TD*%
D16*
%TO.C,Q4*%
X127040000Y-70545000D03*
X128340000Y-70545000D03*
X127690000Y-68545000D03*
%TD*%
D17*
%TO.C,R9*%
X130230000Y-74295000D03*
X128580000Y-74295000D03*
%TD*%
D13*
%TO.C,C11*%
X132955000Y-76245000D03*
X132955000Y-77795000D03*
%TD*%
D14*
%TO.C,R10*%
X128480000Y-78055000D03*
X128480000Y-76405000D03*
%TD*%
D18*
%TO.C,C12*%
X145220000Y-77765000D03*
X146770000Y-77765000D03*
%TD*%
D19*
%TO.C,Q3*%
X141130000Y-77450000D03*
X139830000Y-77450000D03*
X140480000Y-79450000D03*
%TD*%
M02*
