%TF.GenerationSoftware,KiCad,Pcbnew,9.0.6*%
%TF.CreationDate,2026-07-29T19:22:19-07:00*%
%TF.ProjectId,ir project,69722070-726f-46a6-9563-742e6b696361,rev?*%
%TF.SameCoordinates,Original*%
%TF.FileFunction,Copper,L1,Top*%
%TF.FilePolarity,Positive*%
%FSLAX46Y46*%
G04 Gerber Fmt 4.6, Leading zero omitted, Abs format (unit mm)*
G04 Created by KiCad (PCBNEW 9.0.6) date 2026-07-29 19:22:19*
%MOMM*%
%LPD*%
G01*
G04 APERTURE LIST*
G04 Aperture macros list*
%AMRoundRect*
0 Rectangle with rounded corners*
0 $1 Rounding radius*
0 $2 $3 $4 $5 $6 $7 $8 $9 X,Y pos of 4 corners*
0 Add a 4 corners polygon primitive as box body*
4,1,4,$2,$3,$4,$5,$6,$7,$8,$9,$2,$3,0*
0 Add four circle primitives for the rounded corners*
1,1,$1+$1,$2,$3*
1,1,$1+$1,$4,$5*
1,1,$1+$1,$6,$7*
1,1,$1+$1,$8,$9*
0 Add four rect primitives between the rounded corners*
20,1,$1+$1,$2,$3,$4,$5,0*
20,1,$1+$1,$4,$5,$6,$7,0*
20,1,$1+$1,$6,$7,$8,$9,0*
20,1,$1+$1,$8,$9,$2,$3,0*%
G04 Aperture macros list end*
%TA.AperFunction,Conductor*%
%ADD10C,0.100000*%
%TD*%
%TA.AperFunction,Conductor*%
%ADD11C,0.200000*%
%TD*%
%TA.AperFunction,Conductor*%
%ADD12C,0.376586*%
%TD*%
%TA.AperFunction,SMDPad,CuDef*%
%ADD13RoundRect,0.225000X-0.250000X0.225000X-0.250000X-0.225000X0.250000X-0.225000X0.250000X0.225000X0*%
%TD*%
%TA.AperFunction,SMDPad,CuDef*%
%ADD14RoundRect,0.200000X0.275000X-0.200000X0.275000X0.200000X-0.275000X0.200000X-0.275000X-0.200000X0*%
%TD*%
%TA.AperFunction,SMDPad,CuDef*%
%ADD15RoundRect,0.200000X-0.200000X-0.275000X0.200000X-0.275000X0.200000X0.275000X-0.200000X0.275000X0*%
%TD*%
%TA.AperFunction,SMDPad,CuDef*%
%ADD16RoundRect,0.112500X-0.112500X-0.237500X0.112500X-0.237500X0.112500X0.237500X-0.112500X0.237500X0*%
%TD*%
%TA.AperFunction,SMDPad,CuDef*%
%ADD17RoundRect,0.200000X0.200000X0.275000X-0.200000X0.275000X-0.200000X-0.275000X0.200000X-0.275000X0*%
%TD*%
%TA.AperFunction,SMDPad,CuDef*%
%ADD18RoundRect,0.225000X-0.225000X-0.250000X0.225000X-0.250000X0.225000X0.250000X-0.225000X0.250000X0*%
%TD*%
%TA.AperFunction,SMDPad,CuDef*%
%ADD19RoundRect,0.112500X0.112500X0.237500X-0.112500X0.237500X-0.112500X-0.237500X0.112500X-0.237500X0*%
%TD*%
%TA.AperFunction,ViaPad*%
%ADD20C,0.550000*%
%TD*%
%TA.AperFunction,ViaPad*%
%ADD21C,0.600000*%
%TD*%
%TA.AperFunction,ViaPad*%
%ADD22C,1.350000*%
%TD*%
%TA.AperFunction,ViaPad*%
%ADD23C,0.500000*%
%TD*%
%TA.AperFunction,ViaPad*%
%ADD24C,1.750000*%
%TD*%
%TA.AperFunction,Conductor*%
%ADD25C,0.300000*%
%TD*%
%TA.AperFunction,Conductor*%
%ADD26C,0.500000*%
%TD*%
%TA.AperFunction,Conductor*%
%ADD27C,0.400000*%
%TD*%
%TA.AperFunction,Conductor*%
%ADD28C,0.350000*%
%TD*%
%TA.AperFunction,Conductor*%
%ADD29C,0.250000*%
%TD*%
G04 APERTURE END LIST*
D10*
%TO.N,GND*%
X148030000Y-75165000D02*
X140180000Y-75165000D01*
X140160000Y-78045000D01*
X138080000Y-78045000D01*
X138080000Y-74942488D01*
X138084549Y-74942488D01*
X138087850Y-75455747D01*
X138090000Y-75215000D01*
X138084549Y-74942488D01*
X138080000Y-74942488D01*
X138080000Y-74715000D01*
X138070000Y-74215000D01*
X148020000Y-74215000D01*
X148030000Y-75165000D01*
%TA.AperFunction,Conductor*%
G36*
X148030000Y-75165000D02*
G01*
X140180000Y-75165000D01*
X140160000Y-78045000D01*
X138080000Y-78045000D01*
X138080000Y-74942488D01*
X138084549Y-74942488D01*
X138087850Y-75455747D01*
X138090000Y-75215000D01*
X138084549Y-74942488D01*
X138080000Y-74942488D01*
X138080000Y-74715000D01*
X138070000Y-74215000D01*
X148020000Y-74215000D01*
X148030000Y-75165000D01*
G37*
%TD.AperFunction*%
D11*
X122500000Y-69040000D02*
X124360000Y-69040000D01*
X124360000Y-70000000D01*
X122500000Y-70000000D01*
X122500000Y-69040000D01*
%TA.AperFunction,Conductor*%
G36*
X122500000Y-69040000D02*
G01*
X124360000Y-69040000D01*
X124360000Y-70000000D01*
X122500000Y-70000000D01*
X122500000Y-69040000D01*
G37*
%TD.AperFunction*%
%TO.N,Net-(D3-A)*%
X122500000Y-74040000D02*
X124360000Y-74040000D01*
X124360000Y-75000000D01*
X122500000Y-75000000D01*
X122500000Y-74040000D01*
%TA.AperFunction,Conductor*%
G36*
X122500000Y-74040000D02*
G01*
X124360000Y-74040000D01*
X124360000Y-75000000D01*
X122500000Y-75000000D01*
X122500000Y-74040000D01*
G37*
%TD.AperFunction*%
%TO.N,GND*%
X122600000Y-69650000D02*
X124030000Y-69650000D01*
X124030000Y-70720000D01*
X122600000Y-70720000D01*
X122600000Y-69650000D01*
%TA.AperFunction,Conductor*%
G36*
X122600000Y-69650000D02*
G01*
X124030000Y-69650000D01*
X124030000Y-70720000D01*
X122600000Y-70720000D01*
X122600000Y-69650000D01*
G37*
%TD.AperFunction*%
%TO.N,/R1*%
D12*
X143838293Y-75888414D02*
G75*
G02*
X143461707Y-75888414I-188293J0D01*
G01*
X143461707Y-75888414D02*
G75*
G02*
X143838293Y-75888414I188293J0D01*
G01*
%TO.N,Net-(Q4-E)*%
D11*
X122500000Y-71540000D02*
X123750000Y-71540000D01*
X123750000Y-72500000D01*
X122500000Y-72500000D01*
X122500000Y-71540000D01*
%TA.AperFunction,Conductor*%
G36*
X122500000Y-71540000D02*
G01*
X123750000Y-71540000D01*
X123750000Y-72500000D01*
X122500000Y-72500000D01*
X122500000Y-71540000D01*
G37*
%TD.AperFunction*%
%TO.N,/R3*%
D12*
X146148293Y-75888414D02*
G75*
G02*
X145771707Y-75888414I-188293J0D01*
G01*
X145771707Y-75888414D02*
G75*
G02*
X146148293Y-75888414I188293J0D01*
G01*
%TO.N,/R2*%
X144978293Y-75888414D02*
G75*
G02*
X144601707Y-75888414I-188293J0D01*
G01*
X144601707Y-75888414D02*
G75*
G02*
X144978293Y-75888414I188293J0D01*
G01*
%TO.N,/R0*%
X142658293Y-75888414D02*
G75*
G02*
X142281707Y-75888414I-188293J0D01*
G01*
X142281707Y-75888414D02*
G75*
G02*
X142658293Y-75888414I188293J0D01*
G01*
%TO.N,GND*%
D11*
X119860000Y-80005000D02*
X127170000Y-80005000D01*
X127170000Y-80795000D01*
X119860000Y-80795000D01*
X119860000Y-80005000D01*
%TA.AperFunction,Conductor*%
G36*
X119860000Y-80005000D02*
G01*
X127170000Y-80005000D01*
X127170000Y-80795000D01*
X119860000Y-80795000D01*
X119860000Y-80005000D01*
G37*
%TD.AperFunction*%
%TO.N,Net-(D3-K)*%
X122500000Y-76540000D02*
X123740000Y-76540000D01*
X123740000Y-77500000D01*
X122500000Y-77500000D01*
X122500000Y-76540000D01*
%TA.AperFunction,Conductor*%
G36*
X122500000Y-76540000D02*
G01*
X123740000Y-76540000D01*
X123740000Y-77500000D01*
X122500000Y-77500000D01*
X122500000Y-76540000D01*
G37*
%TD.AperFunction*%
D10*
%TO.N,VDD5*%
X127425897Y-73879419D02*
X127315897Y-74029419D01*
X126385897Y-73909419D01*
X126315897Y-73879419D01*
X127155897Y-72939419D01*
X127425897Y-73879419D01*
%TA.AperFunction,Conductor*%
G36*
X127425897Y-73879419D02*
G01*
X127315897Y-74029419D01*
X126385897Y-73909419D01*
X126315897Y-73879419D01*
X127155897Y-72939419D01*
X127425897Y-73879419D01*
G37*
%TD.AperFunction*%
%TD*%
D13*
%TO.P,C3,1,1*%
%TO.N,GND*%
X130855000Y-76465000D03*
%TO.P,C3,2,2*%
%TO.N,Net-(C3-Pad2)*%
X130855000Y-78015000D03*
%TD*%
D14*
%TO.P,R12,1,1*%
%TO.N,Net-(C11-Pad2)*%
X132950000Y-74535000D03*
%TO.P,R12,2,2*%
%TO.N,/R2*%
X132950000Y-72885000D03*
%TD*%
%TO.P,R24,1,1*%
%TO.N,GND*%
X126440000Y-78285000D03*
%TO.P,R24,2,2*%
%TO.N,Net-(Q4-B)*%
X126440000Y-76635000D03*
%TD*%
D15*
%TO.P,R13,1,1*%
%TO.N,/R2*%
X145202500Y-80015000D03*
%TO.P,R13,2,2*%
%TO.N,/R3*%
X146852500Y-80015000D03*
%TD*%
%TO.P,R15,1,1*%
%TO.N,Net-(C11-Pad2)*%
X133285000Y-79945000D03*
%TO.P,R15,2,2*%
%TO.N,/R1*%
X134935000Y-79945000D03*
%TD*%
D13*
%TO.P,C42,1,1*%
%TO.N,Net-(Q4-B)*%
X125520000Y-68822500D03*
%TO.P,C42,2,2*%
%TO.N,GND*%
X125520000Y-70372500D03*
%TD*%
D14*
%TO.P,R23,1,1*%
%TO.N,Net-(Q4-B)*%
X143130000Y-79305000D03*
%TO.P,R23,2,2*%
%TO.N,/R1*%
X143130000Y-77655000D03*
%TD*%
D15*
%TO.P,R14,1,1*%
%TO.N,Net-(Q4-C)*%
X128920000Y-80070000D03*
%TO.P,R14,2,2*%
%TO.N,/R1*%
X130570000Y-80070000D03*
%TD*%
D16*
%TO.P,Q4,1,B*%
%TO.N,Net-(Q4-B)*%
X127040000Y-70545000D03*
%TO.P,Q4,2,E*%
%TO.N,Net-(Q4-E)*%
X128340000Y-70545000D03*
%TO.P,Q4,3,C*%
%TO.N,Net-(Q4-C)*%
X127690000Y-68545000D03*
%TD*%
D17*
%TO.P,R9,1,1*%
%TO.N,Net-(D3-A)*%
X130230000Y-74295000D03*
%TO.P,R9,2,2*%
%TO.N,VDD5*%
X128580000Y-74295000D03*
%TD*%
D13*
%TO.P,C11,1,1*%
%TO.N,Net-(Q4-C)*%
X132955000Y-76245000D03*
%TO.P,C11,2,2*%
%TO.N,Net-(C11-Pad2)*%
X132955000Y-77795000D03*
%TD*%
D14*
%TO.P,R10,1,1*%
%TO.N,Net-(C3-Pad2)*%
X128480000Y-78055000D03*
%TO.P,R10,2,2*%
%TO.N,Net-(D3-A)*%
X128480000Y-76405000D03*
%TD*%
D18*
%TO.P,C12,1,1*%
%TO.N,/R2*%
X145220000Y-77765000D03*
%TO.P,C12,2,2*%
%TO.N,/R3*%
X146770000Y-77765000D03*
%TD*%
D19*
%TO.P,Q3,1,B*%
%TO.N,/R0*%
X141130000Y-77450000D03*
%TO.P,Q3,2,E*%
%TO.N,GND*%
X139830000Y-77450000D03*
%TO.P,Q3,3,C*%
%TO.N,Net-(D3-K)*%
X140480000Y-79450000D03*
%TD*%
D20*
%TO.N,/R2*%
X131910000Y-72550000D03*
%TO.N,GND*%
X122960000Y-75800000D03*
X124340000Y-75800000D03*
D21*
X144190000Y-74650000D03*
D22*
X138080000Y-77410000D03*
D20*
X129955000Y-76565000D03*
X139870000Y-76605000D03*
X127310000Y-78675000D03*
D23*
X122985000Y-70190000D03*
X123565000Y-70180000D03*
D20*
X124240000Y-80415000D03*
D23*
X133110000Y-78785000D03*
D20*
%TO.N,Net-(D3-K)*%
X125060000Y-78335000D03*
X141280000Y-79455000D03*
%TO.N,Net-(Q4-B)*%
X142420000Y-79925000D03*
X125020000Y-71925000D03*
%TO.N,Net-(Q4-E)*%
X128570000Y-71245000D03*
X124335000Y-73020000D03*
%TO.N,/R2*%
X145235000Y-78905000D03*
D24*
%TO.N,VDD5*%
X126380000Y-73080000D03*
%TD*%
D11*
%TO.N,/R2*%
X132390000Y-72880000D02*
X132710000Y-72880000D01*
X132180000Y-72670000D02*
X132390000Y-72880000D01*
X132030000Y-72670000D02*
X132180000Y-72670000D01*
X132710000Y-72880000D02*
X132715000Y-72875000D01*
X131910000Y-72550000D02*
X132030000Y-72670000D01*
D25*
%TO.N,GND*%
X122960000Y-75800000D02*
X124340000Y-75800000D01*
%TO.N,Net-(D3-A)*%
X123845000Y-74520000D02*
X123690000Y-74365000D01*
X125270000Y-75340000D02*
X124450000Y-74520000D01*
X124450000Y-74520000D02*
X123845000Y-74520000D01*
X128390000Y-76515000D02*
X127440000Y-77465000D01*
X127440000Y-77465000D02*
X125630000Y-77465000D01*
X125270000Y-77105000D02*
X125270000Y-75340000D01*
X128495000Y-76515000D02*
X128390000Y-76515000D01*
X125630000Y-77465000D02*
X125270000Y-77105000D01*
D11*
%TO.N,Net-(Q4-B)*%
X125230000Y-71925000D02*
X125020000Y-71925000D01*
X127050000Y-71115000D02*
X126715000Y-71450000D01*
X127050000Y-69950000D02*
X127050000Y-71115000D01*
X126715000Y-71450000D02*
X125705000Y-71450000D01*
X125705000Y-71450000D02*
X125230000Y-71925000D01*
X125665000Y-68565000D02*
X127050000Y-69950000D01*
X125310000Y-68565000D02*
X125665000Y-68565000D01*
D26*
%TO.N,GND*%
X124970000Y-80285000D02*
X126440000Y-78815000D01*
X126440000Y-78815000D02*
X126440000Y-78285000D01*
D25*
X124240000Y-80285000D02*
X124400000Y-80125000D01*
X125205000Y-70220000D02*
X125310000Y-70115000D01*
D26*
X126610000Y-78475000D02*
X126610000Y-78285000D01*
D25*
X123565000Y-70180000D02*
X123810000Y-70425000D01*
X126610000Y-78285000D02*
X126940000Y-78285000D01*
D27*
X125425000Y-70175000D02*
X125475000Y-70125000D01*
X124240000Y-80285000D02*
X124970000Y-80285000D01*
D25*
X126610000Y-78285000D02*
X126500000Y-78175000D01*
X127310000Y-78675000D02*
X127310000Y-78655000D01*
X123300000Y-69915000D02*
X123565000Y-70180000D01*
D26*
X126940000Y-78285000D02*
X127310000Y-78655000D01*
X126500000Y-78225000D02*
X126500000Y-78175000D01*
D28*
X133330000Y-78995000D02*
X138710000Y-78995000D01*
X138710000Y-78995000D02*
X139830000Y-77875000D01*
X133130000Y-78795000D02*
X133330000Y-78995000D01*
D27*
X124060000Y-70410000D02*
X125425000Y-70410000D01*
D25*
X123300000Y-69875000D02*
X123300000Y-69915000D01*
X139830000Y-77450000D02*
X139830000Y-76735000D01*
X123300000Y-69875000D02*
X122985000Y-70190000D01*
X122985000Y-70190000D02*
X122770000Y-70405000D01*
X122790000Y-70425000D02*
X123810000Y-70425000D01*
X129985000Y-76535000D02*
X130955000Y-76535000D01*
D26*
X126440000Y-78285000D02*
X126500000Y-78225000D01*
D25*
X122770000Y-70405000D02*
X122790000Y-70425000D01*
D26*
X127310000Y-78655000D02*
X127300000Y-78665000D01*
D25*
X123300000Y-69245000D02*
X123300000Y-69875000D01*
X129970000Y-76675000D02*
X130000000Y-76645000D01*
X123810000Y-70425000D02*
X123970000Y-70265000D01*
X133130000Y-78795000D02*
X133140000Y-78795000D01*
D29*
X139830000Y-77450000D02*
X139830000Y-77875000D01*
D25*
%TO.N,Net-(D3-K)*%
X125060000Y-78335000D02*
X124890000Y-78335000D01*
D11*
X140485000Y-79455000D02*
X140480000Y-79450000D01*
X141280000Y-79455000D02*
X140485000Y-79455000D01*
D25*
X123300000Y-76980000D02*
X122990000Y-76980000D01*
X124890000Y-78335000D02*
X123300000Y-76745000D01*
D11*
%TO.N,Net-(Q4-B)*%
X143240000Y-79415000D02*
X143130000Y-79305000D01*
X142630000Y-79805000D02*
X143130000Y-79305000D01*
X125015000Y-71930000D02*
X125015000Y-73760000D01*
X125020000Y-71925000D02*
X125015000Y-71930000D01*
X142420000Y-79925000D02*
X142540000Y-79805000D01*
X126430000Y-76325000D02*
X126500000Y-76395000D01*
X142540000Y-79805000D02*
X142630000Y-79805000D01*
X125015000Y-73760000D02*
X126430000Y-75175000D01*
X126430000Y-75175000D02*
X126430000Y-76325000D01*
%TO.N,Net-(Q4-E)*%
X128570000Y-71245000D02*
X128340000Y-71015000D01*
X128340000Y-71015000D02*
X128340000Y-70545000D01*
D25*
X124335000Y-73020000D02*
X123060000Y-71745000D01*
D11*
X123060000Y-71745000D02*
X122990000Y-71745000D01*
X128340000Y-70545000D02*
X128220000Y-70545000D01*
%TO.N,Net-(Q4-C)*%
X131340000Y-73565000D02*
X131060000Y-73285000D01*
X133175000Y-76565000D02*
X133175000Y-76355000D01*
X127690000Y-71565000D02*
X127690000Y-68665000D01*
X131060000Y-73285000D02*
X129410000Y-73285000D01*
X131870000Y-79085000D02*
X131900000Y-79055000D01*
X127690000Y-68665000D02*
X127570000Y-68545000D01*
X132740000Y-76275000D02*
X131340000Y-74875000D01*
X129905000Y-79085000D02*
X131870000Y-79085000D01*
X131900000Y-77300000D02*
X132925000Y-76275000D01*
X131900000Y-79055000D02*
X131900000Y-77300000D01*
X128920000Y-80070000D02*
X129905000Y-79085000D01*
X131340000Y-74875000D02*
X131340000Y-73565000D01*
X132925000Y-76275000D02*
X132740000Y-76275000D01*
X129410000Y-73285000D02*
X127690000Y-71565000D01*
%TO.N,Net-(C3-Pad2)*%
X128495000Y-78165000D02*
X128160000Y-78165000D01*
X130940000Y-78165000D02*
X130970000Y-78195000D01*
D25*
X128480000Y-78055000D02*
X130925000Y-78055000D01*
D11*
%TO.N,Net-(C11-Pad2)*%
X133170000Y-79945000D02*
X132450000Y-79225000D01*
X133310000Y-74525000D02*
X133830000Y-75045000D01*
X132450000Y-78360000D02*
X132985000Y-77825000D01*
X133830000Y-75045000D02*
X133830000Y-77250000D01*
X132715000Y-74525000D02*
X133310000Y-74525000D01*
X133830000Y-77250000D02*
X133170000Y-77910000D01*
X133285000Y-79945000D02*
X133170000Y-79945000D01*
D25*
X132720000Y-74435000D02*
X132710000Y-74445000D01*
D11*
X132450000Y-79225000D02*
X132450000Y-78360000D01*
D25*
%TO.N,/R2*%
X145235000Y-78905000D02*
X145235000Y-79832500D01*
D29*
X144770000Y-76025000D02*
X144770000Y-76665000D01*
D11*
X145235000Y-79832500D02*
X145217500Y-79850000D01*
D29*
X144770000Y-76665000D02*
X145235000Y-77130000D01*
X144740000Y-75995000D02*
X144770000Y-76025000D01*
X145235000Y-77130000D02*
X145235000Y-77600000D01*
D25*
X145235000Y-77600000D02*
X145235000Y-78905000D01*
D11*
%TO.N,/R3*%
X146785000Y-77600000D02*
X146867500Y-77682500D01*
D29*
X145960000Y-75915000D02*
X146785000Y-76740000D01*
X146785000Y-76740000D02*
X146785000Y-77600000D01*
D11*
X146867500Y-77682500D02*
X146867500Y-79850000D01*
%TO.N,Net-(D3-A)*%
X130060000Y-73965000D02*
X130492500Y-73965000D01*
D25*
X130230000Y-74685000D02*
X130230000Y-74295000D01*
D27*
X128800000Y-76115000D02*
X130230000Y-74685000D01*
D11*
X128495000Y-76515000D02*
X128800000Y-76515000D01*
D25*
X128800000Y-76515000D02*
X128800000Y-76115000D01*
D29*
%TO.N,/R0*%
X141130000Y-77450000D02*
X141130000Y-77265000D01*
X141130000Y-77265000D02*
X142390000Y-76005000D01*
D25*
X141130000Y-77450000D02*
X141120000Y-77440000D01*
D11*
X141170000Y-77410000D02*
X141130000Y-77450000D01*
%TO.N,/R1*%
X130570000Y-80070000D02*
X130495000Y-80070000D01*
X134970000Y-80015000D02*
X138780000Y-80015000D01*
D29*
X143130000Y-77655000D02*
X143130000Y-77275000D01*
D11*
X131875000Y-80070000D02*
X132560000Y-80755000D01*
X130570000Y-80070000D02*
X131875000Y-80070000D01*
D29*
X143610000Y-76795000D02*
X143610000Y-76065000D01*
D11*
X142190000Y-78595000D02*
X143130000Y-77655000D01*
X134125000Y-80755000D02*
X134935000Y-79945000D01*
X134850000Y-80135000D02*
X134970000Y-80015000D01*
X138780000Y-80015000D02*
X140200000Y-78595000D01*
D29*
X143610000Y-76065000D02*
X143580000Y-76035000D01*
D11*
X132560000Y-80755000D02*
X134125000Y-80755000D01*
X140200000Y-78595000D02*
X142190000Y-78595000D01*
D29*
X143130000Y-77275000D02*
X143610000Y-76795000D01*
D11*
X130575000Y-80075000D02*
X130570000Y-80070000D01*
D26*
%TO.N,VDD5*%
X127595000Y-74295000D02*
X126580000Y-73280000D01*
X128580000Y-74295000D02*
X127595000Y-74295000D01*
X126580000Y-73280000D02*
X126580000Y-72975000D01*
D25*
X126320000Y-73035000D02*
X126380000Y-72975000D01*
%TD*%
M02*
